<?xml version="1.0" standalone="no"?>
<!DOCTYPE svg PUBLIC "-//W3C//DTD SVG 1.1//EN" "http://www.w3.org/Graphics/SVG/1.1/DTD/svg11.dtd">
<svg width="62" height="62" version="1.1" xmlns="http://www.w3.org/2000/svg">
	<desc>https://www.qrtag.net/api/f9781608</desc>
	<g id="elements" fill="#ffffff" stroke="none">
		<rect x="0" y="0" width="62" height="62" />
	</g>
	<g id="elements" fill="#000000" stroke="none">
		<rect x="2" y="2" width="2" height="2" />
		<rect x="4" y="2" width="2" height="2" />
		<rect x="6" y="2" width="2" height="2" />
		<rect x="8" y="2" width="2" height="2" />
		<rect x="10" y="2" width="2" height="2" />
		<rect x="12" y="2" width="2" height="2" />
		<rect x="14" y="2" width="2" height="2" />
		<rect x="18" y="2" width="2" height="2" />
		<rect x="28" y="2" width="2" height="2" />
		<rect x="30" y="2" width="2" height="2" />
		<rect x="32" y="2" width="2" height="2" />
		<rect x="38" y="2" width="2" height="2" />
		<rect x="40" y="2" width="2" height="2" />
		<rect x="42" y="2" width="2" height="2" />
		<rect x="46" y="2" width="2" height="2" />
		<rect x="48" y="2" width="2" height="2" />
		<rect x="50" y="2" width="2" height="2" />
		<rect x="52" y="2" width="2" height="2" />
		<rect x="54" y="2" width="2" height="2" />
		<rect x="56" y="2" width="2" height="2" />
		<rect x="58" y="2" width="2" height="2" />
		<rect x="2" y="4" width="2" height="2" />
		<rect x="14" y="4" width="2" height="2" />
		<rect x="18" y="4" width="2" height="2" />
		<rect x="24" y="4" width="2" height="2" />
		<rect x="26" y="4" width="2" height="2" />
		<rect x="28" y="4" width="2" height="2" />
		<rect x="34" y="4" width="2" height="2" />
		<rect x="36" y="4" width="2" height="2" />
		<rect x="46" y="4" width="2" height="2" />
		<rect x="58" y="4" width="2" height="2" />
		<rect x="2" y="6" width="2" height="2" />
		<rect x="6" y="6" width="2" height="2" />
		<rect x="8" y="6" width="2" height="2" />
		<rect x="10" y="6" width="2" height="2" />
		<rect x="14" y="6" width="2" height="2" />
		<rect x="20" y="6" width="2" height="2" />
		<rect x="24" y="6" width="2" height="2" />
		<rect x="26" y="6" width="2" height="2" />
		<rect x="34" y="6" width="2" height="2" />
		<rect x="38" y="6" width="2" height="2" />
		<rect x="42" y="6" width="2" height="2" />
		<rect x="46" y="6" width="2" height="2" />
		<rect x="50" y="6" width="2" height="2" />
		<rect x="52" y="6" width="2" height="2" />
		<rect x="54" y="6" width="2" height="2" />
		<rect x="58" y="6" width="2" height="2" />
		<rect x="2" y="8" width="2" height="2" />
		<rect x="6" y="8" width="2" height="2" />
		<rect x="8" y="8" width="2" height="2" />
		<rect x="10" y="8" width="2" height="2" />
		<rect x="14" y="8" width="2" height="2" />
		<rect x="18" y="8" width="2" height="2" />
		<rect x="26" y="8" width="2" height="2" />
		<rect x="30" y="8" width="2" height="2" />
		<rect x="32" y="8" width="2" height="2" />
		<rect x="36" y="8" width="2" height="2" />
		<rect x="40" y="8" width="2" height="2" />
		<rect x="46" y="8" width="2" height="2" />
		<rect x="50" y="8" width="2" height="2" />
		<rect x="52" y="8" width="2" height="2" />
		<rect x="54" y="8" width="2" height="2" />
		<rect x="58" y="8" width="2" height="2" />
		<rect x="2" y="10" width="2" height="2" />
		<rect x="6" y="10" width="2" height="2" />
		<rect x="8" y="10" width="2" height="2" />
		<rect x="10" y="10" width="2" height="2" />
		<rect x="14" y="10" width="2" height="2" />
		<rect x="30" y="10" width="2" height="2" />
		<rect x="34" y="10" width="2" height="2" />
		<rect x="36" y="10" width="2" height="2" />
		<rect x="38" y="10" width="2" height="2" />
		<rect x="40" y="10" width="2" height="2" />
		<rect x="42" y="10" width="2" height="2" />
		<rect x="46" y="10" width="2" height="2" />
		<rect x="50" y="10" width="2" height="2" />
		<rect x="52" y="10" width="2" height="2" />
		<rect x="54" y="10" width="2" height="2" />
		<rect x="58" y="10" width="2" height="2" />
		<rect x="2" y="12" width="2" height="2" />
		<rect x="14" y="12" width="2" height="2" />
		<rect x="20" y="12" width="2" height="2" />
		<rect x="24" y="12" width="2" height="2" />
		<rect x="26" y="12" width="2" height="2" />
		<rect x="28" y="12" width="2" height="2" />
		<rect x="32" y="12" width="2" height="2" />
		<rect x="34" y="12" width="2" height="2" />
		<rect x="40" y="12" width="2" height="2" />
		<rect x="46" y="12" width="2" height="2" />
		<rect x="58" y="12" width="2" height="2" />
		<rect x="2" y="14" width="2" height="2" />
		<rect x="4" y="14" width="2" height="2" />
		<rect x="6" y="14" width="2" height="2" />
		<rect x="8" y="14" width="2" height="2" />
		<rect x="10" y="14" width="2" height="2" />
		<rect x="12" y="14" width="2" height="2" />
		<rect x="14" y="14" width="2" height="2" />
		<rect x="18" y="14" width="2" height="2" />
		<rect x="22" y="14" width="2" height="2" />
		<rect x="26" y="14" width="2" height="2" />
		<rect x="30" y="14" width="2" height="2" />
		<rect x="34" y="14" width="2" height="2" />
		<rect x="38" y="14" width="2" height="2" />
		<rect x="42" y="14" width="2" height="2" />
		<rect x="46" y="14" width="2" height="2" />
		<rect x="48" y="14" width="2" height="2" />
		<rect x="50" y="14" width="2" height="2" />
		<rect x="52" y="14" width="2" height="2" />
		<rect x="54" y="14" width="2" height="2" />
		<rect x="56" y="14" width="2" height="2" />
		<rect x="58" y="14" width="2" height="2" />
		<rect x="18" y="16" width="2" height="2" />
		<rect x="20" y="16" width="2" height="2" />
		<rect x="22" y="16" width="2" height="2" />
		<rect x="32" y="16" width="2" height="2" />
		<rect x="34" y="16" width="2" height="2" />
		<rect x="36" y="16" width="2" height="2" />
		<rect x="2" y="18" width="2" height="2" />
		<rect x="6" y="18" width="2" height="2" />
		<rect x="8" y="18" width="2" height="2" />
		<rect x="12" y="18" width="2" height="2" />
		<rect x="14" y="18" width="2" height="2" />
		<rect x="16" y="18" width="2" height="2" />
		<rect x="22" y="18" width="2" height="2" />
		<rect x="24" y="18" width="2" height="2" />
		<rect x="26" y="18" width="2" height="2" />
		<rect x="28" y="18" width="2" height="2" />
		<rect x="32" y="18" width="2" height="2" />
		<rect x="36" y="18" width="2" height="2" />
		<rect x="38" y="18" width="2" height="2" />
		<rect x="40" y="18" width="2" height="2" />
		<rect x="42" y="18" width="2" height="2" />
		<rect x="46" y="18" width="2" height="2" />
		<rect x="52" y="18" width="2" height="2" />
		<rect x="56" y="18" width="2" height="2" />
		<rect x="58" y="18" width="2" height="2" />
		<rect x="4" y="20" width="2" height="2" />
		<rect x="8" y="20" width="2" height="2" />
		<rect x="10" y="20" width="2" height="2" />
		<rect x="12" y="20" width="2" height="2" />
		<rect x="20" y="20" width="2" height="2" />
		<rect x="22" y="20" width="2" height="2" />
		<rect x="26" y="20" width="2" height="2" />
		<rect x="28" y="20" width="2" height="2" />
		<rect x="30" y="20" width="2" height="2" />
		<rect x="32" y="20" width="2" height="2" />
		<rect x="36" y="20" width="2" height="2" />
		<rect x="38" y="20" width="2" height="2" />
		<rect x="40" y="20" width="2" height="2" />
		<rect x="42" y="20" width="2" height="2" />
		<rect x="46" y="20" width="2" height="2" />
		<rect x="48" y="20" width="2" height="2" />
		<rect x="50" y="20" width="2" height="2" />
		<rect x="58" y="20" width="2" height="2" />
		<rect x="6" y="22" width="2" height="2" />
		<rect x="14" y="22" width="2" height="2" />
		<rect x="20" y="22" width="2" height="2" />
		<rect x="26" y="22" width="2" height="2" />
		<rect x="28" y="22" width="2" height="2" />
		<rect x="34" y="22" width="2" height="2" />
		<rect x="36" y="22" width="2" height="2" />
		<rect x="48" y="22" width="2" height="2" />
		<rect x="50" y="22" width="2" height="2" />
		<rect x="54" y="22" width="2" height="2" />
		<rect x="56" y="22" width="2" height="2" />
		<rect x="2" y="24" width="2" height="2" />
		<rect x="4" y="24" width="2" height="2" />
		<rect x="8" y="24" width="2" height="2" />
		<rect x="10" y="24" width="2" height="2" />
		<rect x="12" y="24" width="2" height="2" />
		<rect x="20" y="24" width="2" height="2" />
		<rect x="24" y="24" width="2" height="2" />
		<rect x="34" y="24" width="2" height="2" />
		<rect x="38" y="24" width="2" height="2" />
		<rect x="40" y="24" width="2" height="2" />
		<rect x="42" y="24" width="2" height="2" />
		<rect x="44" y="24" width="2" height="2" />
		<rect x="46" y="24" width="2" height="2" />
		<rect x="48" y="24" width="2" height="2" />
		<rect x="50" y="24" width="2" height="2" />
		<rect x="58" y="24" width="2" height="2" />
		<rect x="2" y="26" width="2" height="2" />
		<rect x="4" y="26" width="2" height="2" />
		<rect x="6" y="26" width="2" height="2" />
		<rect x="12" y="26" width="2" height="2" />
		<rect x="14" y="26" width="2" height="2" />
		<rect x="16" y="26" width="2" height="2" />
		<rect x="30" y="26" width="2" height="2" />
		<rect x="32" y="26" width="2" height="2" />
		<rect x="36" y="26" width="2" height="2" />
		<rect x="38" y="26" width="2" height="2" />
		<rect x="52" y="26" width="2" height="2" />
		<rect x="54" y="26" width="2" height="2" />
		<rect x="6" y="28" width="2" height="2" />
		<rect x="10" y="28" width="2" height="2" />
		<rect x="16" y="28" width="2" height="2" />
		<rect x="20" y="28" width="2" height="2" />
		<rect x="22" y="28" width="2" height="2" />
		<rect x="30" y="28" width="2" height="2" />
		<rect x="34" y="28" width="2" height="2" />
		<rect x="40" y="28" width="2" height="2" />
		<rect x="44" y="28" width="2" height="2" />
		<rect x="46" y="28" width="2" height="2" />
		<rect x="48" y="28" width="2" height="2" />
		<rect x="54" y="28" width="2" height="2" />
		<rect x="56" y="28" width="2" height="2" />
		<rect x="58" y="28" width="2" height="2" />
		<rect x="2" y="30" width="2" height="2" />
		<rect x="8" y="30" width="2" height="2" />
		<rect x="12" y="30" width="2" height="2" />
		<rect x="14" y="30" width="2" height="2" />
		<rect x="18" y="30" width="2" height="2" />
		<rect x="22" y="30" width="2" height="2" />
		<rect x="28" y="30" width="2" height="2" />
		<rect x="32" y="30" width="2" height="2" />
		<rect x="34" y="30" width="2" height="2" />
		<rect x="36" y="30" width="2" height="2" />
		<rect x="38" y="30" width="2" height="2" />
		<rect x="40" y="30" width="2" height="2" />
		<rect x="46" y="30" width="2" height="2" />
		<rect x="48" y="30" width="2" height="2" />
		<rect x="50" y="30" width="2" height="2" />
		<rect x="54" y="30" width="2" height="2" />
		<rect x="56" y="30" width="2" height="2" />
		<rect x="58" y="30" width="2" height="2" />
		<rect x="4" y="32" width="2" height="2" />
		<rect x="6" y="32" width="2" height="2" />
		<rect x="8" y="32" width="2" height="2" />
		<rect x="12" y="32" width="2" height="2" />
		<rect x="24" y="32" width="2" height="2" />
		<rect x="26" y="32" width="2" height="2" />
		<rect x="30" y="32" width="2" height="2" />
		<rect x="34" y="32" width="2" height="2" />
		<rect x="40" y="32" width="2" height="2" />
		<rect x="42" y="32" width="2" height="2" />
		<rect x="44" y="32" width="2" height="2" />
		<rect x="46" y="32" width="2" height="2" />
		<rect x="48" y="32" width="2" height="2" />
		<rect x="50" y="32" width="2" height="2" />
		<rect x="56" y="32" width="2" height="2" />
		<rect x="2" y="34" width="2" height="2" />
		<rect x="6" y="34" width="2" height="2" />
		<rect x="12" y="34" width="2" height="2" />
		<rect x="14" y="34" width="2" height="2" />
		<rect x="20" y="34" width="2" height="2" />
		<rect x="22" y="34" width="2" height="2" />
		<rect x="24" y="34" width="2" height="2" />
		<rect x="30" y="34" width="2" height="2" />
		<rect x="32" y="34" width="2" height="2" />
		<rect x="38" y="34" width="2" height="2" />
		<rect x="40" y="34" width="2" height="2" />
		<rect x="42" y="34" width="2" height="2" />
		<rect x="44" y="34" width="2" height="2" />
		<rect x="50" y="34" width="2" height="2" />
		<rect x="52" y="34" width="2" height="2" />
		<rect x="56" y="34" width="2" height="2" />
		<rect x="4" y="36" width="2" height="2" />
		<rect x="8" y="36" width="2" height="2" />
		<rect x="20" y="36" width="2" height="2" />
		<rect x="22" y="36" width="2" height="2" />
		<rect x="24" y="36" width="2" height="2" />
		<rect x="30" y="36" width="2" height="2" />
		<rect x="34" y="36" width="2" height="2" />
		<rect x="42" y="36" width="2" height="2" />
		<rect x="44" y="36" width="2" height="2" />
		<rect x="48" y="36" width="2" height="2" />
		<rect x="52" y="36" width="2" height="2" />
		<rect x="54" y="36" width="2" height="2" />
		<rect x="56" y="36" width="2" height="2" />
		<rect x="2" y="38" width="2" height="2" />
		<rect x="8" y="38" width="2" height="2" />
		<rect x="10" y="38" width="2" height="2" />
		<rect x="12" y="38" width="2" height="2" />
		<rect x="14" y="38" width="2" height="2" />
		<rect x="18" y="38" width="2" height="2" />
		<rect x="20" y="38" width="2" height="2" />
		<rect x="26" y="38" width="2" height="2" />
		<rect x="28" y="38" width="2" height="2" />
		<rect x="30" y="38" width="2" height="2" />
		<rect x="32" y="38" width="2" height="2" />
		<rect x="36" y="38" width="2" height="2" />
		<rect x="48" y="38" width="2" height="2" />
		<rect x="54" y="38" width="2" height="2" />
		<rect x="18" y="40" width="2" height="2" />
		<rect x="22" y="40" width="2" height="2" />
		<rect x="28" y="40" width="2" height="2" />
		<rect x="30" y="40" width="2" height="2" />
		<rect x="36" y="40" width="2" height="2" />
		<rect x="40" y="40" width="2" height="2" />
		<rect x="54" y="40" width="2" height="2" />
		<rect x="4" y="42" width="2" height="2" />
		<rect x="8" y="42" width="2" height="2" />
		<rect x="12" y="42" width="2" height="2" />
		<rect x="14" y="42" width="2" height="2" />
		<rect x="22" y="42" width="2" height="2" />
		<rect x="26" y="42" width="2" height="2" />
		<rect x="28" y="42" width="2" height="2" />
		<rect x="30" y="42" width="2" height="2" />
		<rect x="34" y="42" width="2" height="2" />
		<rect x="42" y="42" width="2" height="2" />
		<rect x="44" y="42" width="2" height="2" />
		<rect x="46" y="42" width="2" height="2" />
		<rect x="48" y="42" width="2" height="2" />
		<rect x="50" y="42" width="2" height="2" />
		<rect x="52" y="42" width="2" height="2" />
		<rect x="54" y="42" width="2" height="2" />
		<rect x="18" y="44" width="2" height="2" />
		<rect x="26" y="44" width="2" height="2" />
		<rect x="42" y="44" width="2" height="2" />
		<rect x="50" y="44" width="2" height="2" />
		<rect x="52" y="44" width="2" height="2" />
		<rect x="54" y="44" width="2" height="2" />
		<rect x="56" y="44" width="2" height="2" />
		<rect x="58" y="44" width="2" height="2" />
		<rect x="2" y="46" width="2" height="2" />
		<rect x="4" y="46" width="2" height="2" />
		<rect x="6" y="46" width="2" height="2" />
		<rect x="8" y="46" width="2" height="2" />
		<rect x="10" y="46" width="2" height="2" />
		<rect x="12" y="46" width="2" height="2" />
		<rect x="14" y="46" width="2" height="2" />
		<rect x="18" y="46" width="2" height="2" />
		<rect x="22" y="46" width="2" height="2" />
		<rect x="26" y="46" width="2" height="2" />
		<rect x="30" y="46" width="2" height="2" />
		<rect x="36" y="46" width="2" height="2" />
		<rect x="40" y="46" width="2" height="2" />
		<rect x="42" y="46" width="2" height="2" />
		<rect x="46" y="46" width="2" height="2" />
		<rect x="50" y="46" width="2" height="2" />
		<rect x="52" y="46" width="2" height="2" />
		<rect x="56" y="46" width="2" height="2" />
		<rect x="2" y="48" width="2" height="2" />
		<rect x="14" y="48" width="2" height="2" />
		<rect x="18" y="48" width="2" height="2" />
		<rect x="24" y="48" width="2" height="2" />
		<rect x="26" y="48" width="2" height="2" />
		<rect x="28" y="48" width="2" height="2" />
		<rect x="30" y="48" width="2" height="2" />
		<rect x="34" y="48" width="2" height="2" />
		<rect x="40" y="48" width="2" height="2" />
		<rect x="42" y="48" width="2" height="2" />
		<rect x="50" y="48" width="2" height="2" />
		<rect x="52" y="48" width="2" height="2" />
		<rect x="56" y="48" width="2" height="2" />
		<rect x="2" y="50" width="2" height="2" />
		<rect x="6" y="50" width="2" height="2" />
		<rect x="8" y="50" width="2" height="2" />
		<rect x="10" y="50" width="2" height="2" />
		<rect x="14" y="50" width="2" height="2" />
		<rect x="20" y="50" width="2" height="2" />
		<rect x="26" y="50" width="2" height="2" />
		<rect x="38" y="50" width="2" height="2" />
		<rect x="42" y="50" width="2" height="2" />
		<rect x="44" y="50" width="2" height="2" />
		<rect x="46" y="50" width="2" height="2" />
		<rect x="48" y="50" width="2" height="2" />
		<rect x="50" y="50" width="2" height="2" />
		<rect x="54" y="50" width="2" height="2" />
		<rect x="56" y="50" width="2" height="2" />
		<rect x="58" y="50" width="2" height="2" />
		<rect x="2" y="52" width="2" height="2" />
		<rect x="6" y="52" width="2" height="2" />
		<rect x="8" y="52" width="2" height="2" />
		<rect x="10" y="52" width="2" height="2" />
		<rect x="14" y="52" width="2" height="2" />
		<rect x="18" y="52" width="2" height="2" />
		<rect x="28" y="52" width="2" height="2" />
		<rect x="32" y="52" width="2" height="2" />
		<rect x="38" y="52" width="2" height="2" />
		<rect x="40" y="52" width="2" height="2" />
		<rect x="44" y="52" width="2" height="2" />
		<rect x="50" y="52" width="2" height="2" />
		<rect x="52" y="52" width="2" height="2" />
		<rect x="56" y="52" width="2" height="2" />
		<rect x="2" y="54" width="2" height="2" />
		<rect x="6" y="54" width="2" height="2" />
		<rect x="8" y="54" width="2" height="2" />
		<rect x="10" y="54" width="2" height="2" />
		<rect x="14" y="54" width="2" height="2" />
		<rect x="18" y="54" width="2" height="2" />
		<rect x="22" y="54" width="2" height="2" />
		<rect x="24" y="54" width="2" height="2" />
		<rect x="26" y="54" width="2" height="2" />
		<rect x="28" y="54" width="2" height="2" />
		<rect x="34" y="54" width="2" height="2" />
		<rect x="36" y="54" width="2" height="2" />
		<rect x="38" y="54" width="2" height="2" />
		<rect x="48" y="54" width="2" height="2" />
		<rect x="54" y="54" width="2" height="2" />
		<rect x="58" y="54" width="2" height="2" />
		<rect x="2" y="56" width="2" height="2" />
		<rect x="14" y="56" width="2" height="2" />
		<rect x="20" y="56" width="2" height="2" />
		<rect x="24" y="56" width="2" height="2" />
		<rect x="28" y="56" width="2" height="2" />
		<rect x="30" y="56" width="2" height="2" />
		<rect x="36" y="56" width="2" height="2" />
		<rect x="42" y="56" width="2" height="2" />
		<rect x="44" y="56" width="2" height="2" />
		<rect x="48" y="56" width="2" height="2" />
		<rect x="52" y="56" width="2" height="2" />
		<rect x="56" y="56" width="2" height="2" />
		<rect x="2" y="58" width="2" height="2" />
		<rect x="4" y="58" width="2" height="2" />
		<rect x="6" y="58" width="2" height="2" />
		<rect x="8" y="58" width="2" height="2" />
		<rect x="10" y="58" width="2" height="2" />
		<rect x="12" y="58" width="2" height="2" />
		<rect x="14" y="58" width="2" height="2" />
		<rect x="18" y="58" width="2" height="2" />
		<rect x="20" y="58" width="2" height="2" />
		<rect x="26" y="58" width="2" height="2" />
		<rect x="28" y="58" width="2" height="2" />
		<rect x="34" y="58" width="2" height="2" />
		<rect x="36" y="58" width="2" height="2" />
		<rect x="38" y="58" width="2" height="2" />
		<rect x="40" y="58" width="2" height="2" />
		<rect x="42" y="58" width="2" height="2" />
		<rect x="44" y="58" width="2" height="2" />
		<rect x="52" y="58" width="2" height="2" />
		<rect x="56" y="58" width="2" height="2" />
	</g>
</svg>
