<?xml version="1.0" standalone="no"?>
<!DOCTYPE svg PUBLIC "-//W3C//DTD SVG 1.1//EN" "http://www.w3.org/Graphics/SVG/1.1/DTD/svg11.dtd">
<svg width="58" height="58" version="1.1" xmlns="http://www.w3.org/2000/svg">
	<desc>https://www.qrtag.net/api/f9781608</desc>
	<g id="elements" fill="#000000" stroke="none">
		<rect x="0" y="0" width="2" height="2" />
		<rect x="2" y="0" width="2" height="2" />
		<rect x="4" y="0" width="2" height="2" />
		<rect x="6" y="0" width="2" height="2" />
		<rect x="8" y="0" width="2" height="2" />
		<rect x="10" y="0" width="2" height="2" />
		<rect x="12" y="0" width="2" height="2" />
		<rect x="16" y="0" width="2" height="2" />
		<rect x="20" y="0" width="2" height="2" />
		<rect x="22" y="0" width="2" height="2" />
		<rect x="30" y="0" width="2" height="2" />
		<rect x="32" y="0" width="2" height="2" />
		<rect x="34" y="0" width="2" height="2" />
		<rect x="36" y="0" width="2" height="2" />
		<rect x="44" y="0" width="2" height="2" />
		<rect x="46" y="0" width="2" height="2" />
		<rect x="48" y="0" width="2" height="2" />
		<rect x="50" y="0" width="2" height="2" />
		<rect x="52" y="0" width="2" height="2" />
		<rect x="54" y="0" width="2" height="2" />
		<rect x="56" y="0" width="2" height="2" />
		<rect x="0" y="2" width="2" height="2" />
		<rect x="12" y="2" width="2" height="2" />
		<rect x="16" y="2" width="2" height="2" />
		<rect x="32" y="2" width="2" height="2" />
		<rect x="36" y="2" width="2" height="2" />
		<rect x="38" y="2" width="2" height="2" />
		<rect x="44" y="2" width="2" height="2" />
		<rect x="56" y="2" width="2" height="2" />
		<rect x="0" y="4" width="2" height="2" />
		<rect x="4" y="4" width="2" height="2" />
		<rect x="6" y="4" width="2" height="2" />
		<rect x="8" y="4" width="2" height="2" />
		<rect x="12" y="4" width="2" height="2" />
		<rect x="16" y="4" width="2" height="2" />
		<rect x="22" y="4" width="2" height="2" />
		<rect x="30" y="4" width="2" height="2" />
		<rect x="32" y="4" width="2" height="2" />
		<rect x="40" y="4" width="2" height="2" />
		<rect x="44" y="4" width="2" height="2" />
		<rect x="48" y="4" width="2" height="2" />
		<rect x="50" y="4" width="2" height="2" />
		<rect x="52" y="4" width="2" height="2" />
		<rect x="56" y="4" width="2" height="2" />
		<rect x="0" y="6" width="2" height="2" />
		<rect x="4" y="6" width="2" height="2" />
		<rect x="6" y="6" width="2" height="2" />
		<rect x="8" y="6" width="2" height="2" />
		<rect x="12" y="6" width="2" height="2" />
		<rect x="18" y="6" width="2" height="2" />
		<rect x="20" y="6" width="2" height="2" />
		<rect x="24" y="6" width="2" height="2" />
		<rect x="32" y="6" width="2" height="2" />
		<rect x="34" y="6" width="2" height="2" />
		<rect x="38" y="6" width="2" height="2" />
		<rect x="40" y="6" width="2" height="2" />
		<rect x="44" y="6" width="2" height="2" />
		<rect x="48" y="6" width="2" height="2" />
		<rect x="50" y="6" width="2" height="2" />
		<rect x="52" y="6" width="2" height="2" />
		<rect x="56" y="6" width="2" height="2" />
		<rect x="0" y="8" width="2" height="2" />
		<rect x="4" y="8" width="2" height="2" />
		<rect x="6" y="8" width="2" height="2" />
		<rect x="8" y="8" width="2" height="2" />
		<rect x="12" y="8" width="2" height="2" />
		<rect x="16" y="8" width="2" height="2" />
		<rect x="18" y="8" width="2" height="2" />
		<rect x="24" y="8" width="2" height="2" />
		<rect x="28" y="8" width="2" height="2" />
		<rect x="30" y="8" width="2" height="2" />
		<rect x="32" y="8" width="2" height="2" />
		<rect x="34" y="8" width="2" height="2" />
		<rect x="38" y="8" width="2" height="2" />
		<rect x="40" y="8" width="2" height="2" />
		<rect x="44" y="8" width="2" height="2" />
		<rect x="48" y="8" width="2" height="2" />
		<rect x="50" y="8" width="2" height="2" />
		<rect x="52" y="8" width="2" height="2" />
		<rect x="56" y="8" width="2" height="2" />
		<rect x="0" y="10" width="2" height="2" />
		<rect x="12" y="10" width="2" height="2" />
		<rect x="18" y="10" width="2" height="2" />
		<rect x="30" y="10" width="2" height="2" />
		<rect x="32" y="10" width="2" height="2" />
		<rect x="34" y="10" width="2" height="2" />
		<rect x="36" y="10" width="2" height="2" />
		<rect x="44" y="10" width="2" height="2" />
		<rect x="56" y="10" width="2" height="2" />
		<rect x="0" y="12" width="2" height="2" />
		<rect x="2" y="12" width="2" height="2" />
		<rect x="4" y="12" width="2" height="2" />
		<rect x="6" y="12" width="2" height="2" />
		<rect x="8" y="12" width="2" height="2" />
		<rect x="10" y="12" width="2" height="2" />
		<rect x="12" y="12" width="2" height="2" />
		<rect x="16" y="12" width="2" height="2" />
		<rect x="20" y="12" width="2" height="2" />
		<rect x="24" y="12" width="2" height="2" />
		<rect x="28" y="12" width="2" height="2" />
		<rect x="32" y="12" width="2" height="2" />
		<rect x="36" y="12" width="2" height="2" />
		<rect x="40" y="12" width="2" height="2" />
		<rect x="44" y="12" width="2" height="2" />
		<rect x="46" y="12" width="2" height="2" />
		<rect x="48" y="12" width="2" height="2" />
		<rect x="50" y="12" width="2" height="2" />
		<rect x="52" y="12" width="2" height="2" />
		<rect x="54" y="12" width="2" height="2" />
		<rect x="56" y="12" width="2" height="2" />
		<rect x="18" y="14" width="2" height="2" />
		<rect x="20" y="14" width="2" height="2" />
		<rect x="22" y="14" width="2" height="2" />
		<rect x="24" y="14" width="2" height="2" />
		<rect x="26" y="14" width="2" height="2" />
		<rect x="30" y="14" width="2" height="2" />
		<rect x="32" y="14" width="2" height="2" />
		<rect x="36" y="14" width="2" height="2" />
		<rect x="38" y="14" width="2" height="2" />
		<rect x="0" y="16" width="2" height="2" />
		<rect x="6" y="16" width="2" height="2" />
		<rect x="8" y="16" width="2" height="2" />
		<rect x="10" y="16" width="2" height="2" />
		<rect x="12" y="16" width="2" height="2" />
		<rect x="14" y="16" width="2" height="2" />
		<rect x="16" y="16" width="2" height="2" />
		<rect x="18" y="16" width="2" height="2" />
		<rect x="20" y="16" width="2" height="2" />
		<rect x="22" y="16" width="2" height="2" />
		<rect x="26" y="16" width="2" height="2" />
		<rect x="34" y="16" width="2" height="2" />
		<rect x="38" y="16" width="2" height="2" />
		<rect x="40" y="16" width="2" height="2" />
		<rect x="42" y="16" width="2" height="2" />
		<rect x="48" y="16" width="2" height="2" />
		<rect x="52" y="16" width="2" height="2" />
		<rect x="54" y="16" width="2" height="2" />
		<rect x="56" y="16" width="2" height="2" />
		<rect x="2" y="18" width="2" height="2" />
		<rect x="4" y="18" width="2" height="2" />
		<rect x="10" y="18" width="2" height="2" />
		<rect x="16" y="18" width="2" height="2" />
		<rect x="24" y="18" width="2" height="2" />
		<rect x="26" y="18" width="2" height="2" />
		<rect x="32" y="18" width="2" height="2" />
		<rect x="34" y="18" width="2" height="2" />
		<rect x="36" y="18" width="2" height="2" />
		<rect x="38" y="18" width="2" height="2" />
		<rect x="42" y="18" width="2" height="2" />
		<rect x="46" y="18" width="2" height="2" />
		<rect x="48" y="18" width="2" height="2" />
		<rect x="52" y="18" width="2" height="2" />
		<rect x="54" y="18" width="2" height="2" />
		<rect x="0" y="20" width="2" height="2" />
		<rect x="4" y="20" width="2" height="2" />
		<rect x="6" y="20" width="2" height="2" />
		<rect x="12" y="20" width="2" height="2" />
		<rect x="26" y="20" width="2" height="2" />
		<rect x="30" y="20" width="2" height="2" />
		<rect x="32" y="20" width="2" height="2" />
		<rect x="34" y="20" width="2" height="2" />
		<rect x="36" y="20" width="2" height="2" />
		<rect x="42" y="20" width="2" height="2" />
		<rect x="46" y="20" width="2" height="2" />
		<rect x="52" y="20" width="2" height="2" />
		<rect x="6" y="22" width="2" height="2" />
		<rect x="8" y="22" width="2" height="2" />
		<rect x="14" y="22" width="2" height="2" />
		<rect x="18" y="22" width="2" height="2" />
		<rect x="24" y="22" width="2" height="2" />
		<rect x="26" y="22" width="2" height="2" />
		<rect x="32" y="22" width="2" height="2" />
		<rect x="34" y="22" width="2" height="2" />
		<rect x="40" y="22" width="2" height="2" />
		<rect x="42" y="22" width="2" height="2" />
		<rect x="44" y="22" width="2" height="2" />
		<rect x="50" y="22" width="2" height="2" />
		<rect x="56" y="22" width="2" height="2" />
		<rect x="0" y="24" width="2" height="2" />
		<rect x="8" y="24" width="2" height="2" />
		<rect x="12" y="24" width="2" height="2" />
		<rect x="16" y="24" width="2" height="2" />
		<rect x="20" y="24" width="2" height="2" />
		<rect x="22" y="24" width="2" height="2" />
		<rect x="26" y="24" width="2" height="2" />
		<rect x="30" y="24" width="2" height="2" />
		<rect x="32" y="24" width="2" height="2" />
		<rect x="36" y="24" width="2" height="2" />
		<rect x="38" y="24" width="2" height="2" />
		<rect x="40" y="24" width="2" height="2" />
		<rect x="44" y="24" width="2" height="2" />
		<rect x="46" y="24" width="2" height="2" />
		<rect x="56" y="24" width="2" height="2" />
		<rect x="0" y="26" width="2" height="2" />
		<rect x="2" y="26" width="2" height="2" />
		<rect x="4" y="26" width="2" height="2" />
		<rect x="8" y="26" width="2" height="2" />
		<rect x="10" y="26" width="2" height="2" />
		<rect x="18" y="26" width="2" height="2" />
		<rect x="20" y="26" width="2" height="2" />
		<rect x="22" y="26" width="2" height="2" />
		<rect x="24" y="26" width="2" height="2" />
		<rect x="26" y="26" width="2" height="2" />
		<rect x="28" y="26" width="2" height="2" />
		<rect x="32" y="26" width="2" height="2" />
		<rect x="34" y="26" width="2" height="2" />
		<rect x="36" y="26" width="2" height="2" />
		<rect x="42" y="26" width="2" height="2" />
		<rect x="44" y="26" width="2" height="2" />
		<rect x="48" y="26" width="2" height="2" />
		<rect x="50" y="26" width="2" height="2" />
		<rect x="52" y="26" width="2" height="2" />
		<rect x="54" y="26" width="2" height="2" />
		<rect x="56" y="26" width="2" height="2" />
		<rect x="10" y="28" width="2" height="2" />
		<rect x="12" y="28" width="2" height="2" />
		<rect x="16" y="28" width="2" height="2" />
		<rect x="18" y="28" width="2" height="2" />
		<rect x="20" y="28" width="2" height="2" />
		<rect x="24" y="28" width="2" height="2" />
		<rect x="26" y="28" width="2" height="2" />
		<rect x="32" y="28" width="2" height="2" />
		<rect x="34" y="28" width="2" height="2" />
		<rect x="38" y="28" width="2" height="2" />
		<rect x="42" y="28" width="2" height="2" />
		<rect x="44" y="28" width="2" height="2" />
		<rect x="46" y="28" width="2" height="2" />
		<rect x="52" y="28" width="2" height="2" />
		<rect x="56" y="28" width="2" height="2" />
		<rect x="2" y="30" width="2" height="2" />
		<rect x="8" y="30" width="2" height="2" />
		<rect x="10" y="30" width="2" height="2" />
		<rect x="16" y="30" width="2" height="2" />
		<rect x="18" y="30" width="2" height="2" />
		<rect x="20" y="30" width="2" height="2" />
		<rect x="22" y="30" width="2" height="2" />
		<rect x="24" y="30" width="2" height="2" />
		<rect x="30" y="30" width="2" height="2" />
		<rect x="38" y="30" width="2" height="2" />
		<rect x="46" y="30" width="2" height="2" />
		<rect x="48" y="30" width="2" height="2" />
		<rect x="52" y="30" width="2" height="2" />
		<rect x="56" y="30" width="2" height="2" />
		<rect x="4" y="32" width="2" height="2" />
		<rect x="6" y="32" width="2" height="2" />
		<rect x="10" y="32" width="2" height="2" />
		<rect x="12" y="32" width="2" height="2" />
		<rect x="20" y="32" width="2" height="2" />
		<rect x="22" y="32" width="2" height="2" />
		<rect x="24" y="32" width="2" height="2" />
		<rect x="28" y="32" width="2" height="2" />
		<rect x="38" y="32" width="2" height="2" />
		<rect x="40" y="32" width="2" height="2" />
		<rect x="50" y="32" width="2" height="2" />
		<rect x="0" y="34" width="2" height="2" />
		<rect x="6" y="34" width="2" height="2" />
		<rect x="10" y="34" width="2" height="2" />
		<rect x="14" y="34" width="2" height="2" />
		<rect x="18" y="34" width="2" height="2" />
		<rect x="20" y="34" width="2" height="2" />
		<rect x="24" y="34" width="2" height="2" />
		<rect x="26" y="34" width="2" height="2" />
		<rect x="28" y="34" width="2" height="2" />
		<rect x="32" y="34" width="2" height="2" />
		<rect x="34" y="34" width="2" height="2" />
		<rect x="36" y="34" width="2" height="2" />
		<rect x="38" y="34" width="2" height="2" />
		<rect x="40" y="34" width="2" height="2" />
		<rect x="42" y="34" width="2" height="2" />
		<rect x="48" y="34" width="2" height="2" />
		<rect x="52" y="34" width="2" height="2" />
		<rect x="54" y="34" width="2" height="2" />
		<rect x="0" y="36" width="2" height="2" />
		<rect x="2" y="36" width="2" height="2" />
		<rect x="4" y="36" width="2" height="2" />
		<rect x="6" y="36" width="2" height="2" />
		<rect x="12" y="36" width="2" height="2" />
		<rect x="14" y="36" width="2" height="2" />
		<rect x="18" y="36" width="2" height="2" />
		<rect x="20" y="36" width="2" height="2" />
		<rect x="22" y="36" width="2" height="2" />
		<rect x="24" y="36" width="2" height="2" />
		<rect x="30" y="36" width="2" height="2" />
		<rect x="32" y="36" width="2" height="2" />
		<rect x="38" y="36" width="2" height="2" />
		<rect x="40" y="36" width="2" height="2" />
		<rect x="44" y="36" width="2" height="2" />
		<rect x="50" y="36" width="2" height="2" />
		<rect x="56" y="36" width="2" height="2" />
		<rect x="0" y="38" width="2" height="2" />
		<rect x="2" y="38" width="2" height="2" />
		<rect x="10" y="38" width="2" height="2" />
		<rect x="14" y="38" width="2" height="2" />
		<rect x="16" y="38" width="2" height="2" />
		<rect x="20" y="38" width="2" height="2" />
		<rect x="22" y="38" width="2" height="2" />
		<rect x="24" y="38" width="2" height="2" />
		<rect x="28" y="38" width="2" height="2" />
		<rect x="36" y="38" width="2" height="2" />
		<rect x="46" y="38" width="2" height="2" />
		<rect x="48" y="38" width="2" height="2" />
		<rect x="50" y="38" width="2" height="2" />
		<rect x="52" y="38" width="2" height="2" />
		<rect x="0" y="40" width="2" height="2" />
		<rect x="2" y="40" width="2" height="2" />
		<rect x="10" y="40" width="2" height="2" />
		<rect x="12" y="40" width="2" height="2" />
		<rect x="18" y="40" width="2" height="2" />
		<rect x="20" y="40" width="2" height="2" />
		<rect x="26" y="40" width="2" height="2" />
		<rect x="28" y="40" width="2" height="2" />
		<rect x="30" y="40" width="2" height="2" />
		<rect x="32" y="40" width="2" height="2" />
		<rect x="36" y="40" width="2" height="2" />
		<rect x="40" y="40" width="2" height="2" />
		<rect x="42" y="40" width="2" height="2" />
		<rect x="44" y="40" width="2" height="2" />
		<rect x="46" y="40" width="2" height="2" />
		<rect x="48" y="40" width="2" height="2" />
		<rect x="50" y="40" width="2" height="2" />
		<rect x="52" y="40" width="2" height="2" />
		<rect x="54" y="40" width="2" height="2" />
		<rect x="16" y="42" width="2" height="2" />
		<rect x="18" y="42" width="2" height="2" />
		<rect x="20" y="42" width="2" height="2" />
		<rect x="24" y="42" width="2" height="2" />
		<rect x="28" y="42" width="2" height="2" />
		<rect x="30" y="42" width="2" height="2" />
		<rect x="32" y="42" width="2" height="2" />
		<rect x="40" y="42" width="2" height="2" />
		<rect x="48" y="42" width="2" height="2" />
		<rect x="50" y="42" width="2" height="2" />
		<rect x="0" y="44" width="2" height="2" />
		<rect x="2" y="44" width="2" height="2" />
		<rect x="4" y="44" width="2" height="2" />
		<rect x="6" y="44" width="2" height="2" />
		<rect x="8" y="44" width="2" height="2" />
		<rect x="10" y="44" width="2" height="2" />
		<rect x="12" y="44" width="2" height="2" />
		<rect x="16" y="44" width="2" height="2" />
		<rect x="18" y="44" width="2" height="2" />
		<rect x="20" y="44" width="2" height="2" />
		<rect x="28" y="44" width="2" height="2" />
		<rect x="30" y="44" width="2" height="2" />
		<rect x="34" y="44" width="2" height="2" />
		<rect x="36" y="44" width="2" height="2" />
		<rect x="38" y="44" width="2" height="2" />
		<rect x="40" y="44" width="2" height="2" />
		<rect x="44" y="44" width="2" height="2" />
		<rect x="48" y="44" width="2" height="2" />
		<rect x="50" y="44" width="2" height="2" />
		<rect x="0" y="46" width="2" height="2" />
		<rect x="12" y="46" width="2" height="2" />
		<rect x="16" y="46" width="2" height="2" />
		<rect x="28" y="46" width="2" height="2" />
		<rect x="32" y="46" width="2" height="2" />
		<rect x="34" y="46" width="2" height="2" />
		<rect x="36" y="46" width="2" height="2" />
		<rect x="40" y="46" width="2" height="2" />
		<rect x="48" y="46" width="2" height="2" />
		<rect x="54" y="46" width="2" height="2" />
		<rect x="0" y="48" width="2" height="2" />
		<rect x="4" y="48" width="2" height="2" />
		<rect x="6" y="48" width="2" height="2" />
		<rect x="8" y="48" width="2" height="2" />
		<rect x="12" y="48" width="2" height="2" />
		<rect x="16" y="48" width="2" height="2" />
		<rect x="18" y="48" width="2" height="2" />
		<rect x="20" y="48" width="2" height="2" />
		<rect x="22" y="48" width="2" height="2" />
		<rect x="24" y="48" width="2" height="2" />
		<rect x="26" y="48" width="2" height="2" />
		<rect x="28" y="48" width="2" height="2" />
		<rect x="32" y="48" width="2" height="2" />
		<rect x="34" y="48" width="2" height="2" />
		<rect x="36" y="48" width="2" height="2" />
		<rect x="38" y="48" width="2" height="2" />
		<rect x="40" y="48" width="2" height="2" />
		<rect x="42" y="48" width="2" height="2" />
		<rect x="44" y="48" width="2" height="2" />
		<rect x="46" y="48" width="2" height="2" />
		<rect x="48" y="48" width="2" height="2" />
		<rect x="50" y="48" width="2" height="2" />
		<rect x="54" y="48" width="2" height="2" />
		<rect x="0" y="50" width="2" height="2" />
		<rect x="4" y="50" width="2" height="2" />
		<rect x="6" y="50" width="2" height="2" />
		<rect x="8" y="50" width="2" height="2" />
		<rect x="12" y="50" width="2" height="2" />
		<rect x="16" y="50" width="2" height="2" />
		<rect x="22" y="50" width="2" height="2" />
		<rect x="24" y="50" width="2" height="2" />
		<rect x="30" y="50" width="2" height="2" />
		<rect x="34" y="50" width="2" height="2" />
		<rect x="42" y="50" width="2" height="2" />
		<rect x="46" y="50" width="2" height="2" />
		<rect x="54" y="50" width="2" height="2" />
		<rect x="0" y="52" width="2" height="2" />
		<rect x="4" y="52" width="2" height="2" />
		<rect x="6" y="52" width="2" height="2" />
		<rect x="8" y="52" width="2" height="2" />
		<rect x="12" y="52" width="2" height="2" />
		<rect x="18" y="52" width="2" height="2" />
		<rect x="20" y="52" width="2" height="2" />
		<rect x="22" y="52" width="2" height="2" />
		<rect x="26" y="52" width="2" height="2" />
		<rect x="30" y="52" width="2" height="2" />
		<rect x="32" y="52" width="2" height="2" />
		<rect x="34" y="52" width="2" height="2" />
		<rect x="42" y="52" width="2" height="2" />
		<rect x="46" y="52" width="2" height="2" />
		<rect x="48" y="52" width="2" height="2" />
		<rect x="52" y="52" width="2" height="2" />
		<rect x="54" y="52" width="2" height="2" />
		<rect x="56" y="52" width="2" height="2" />
		<rect x="0" y="54" width="2" height="2" />
		<rect x="12" y="54" width="2" height="2" />
		<rect x="20" y="54" width="2" height="2" />
		<rect x="22" y="54" width="2" height="2" />
		<rect x="26" y="54" width="2" height="2" />
		<rect x="30" y="54" width="2" height="2" />
		<rect x="32" y="54" width="2" height="2" />
		<rect x="34" y="54" width="2" height="2" />
		<rect x="44" y="54" width="2" height="2" />
		<rect x="46" y="54" width="2" height="2" />
		<rect x="50" y="54" width="2" height="2" />
		<rect x="52" y="54" width="2" height="2" />
		<rect x="56" y="54" width="2" height="2" />
		<rect x="0" y="56" width="2" height="2" />
		<rect x="2" y="56" width="2" height="2" />
		<rect x="4" y="56" width="2" height="2" />
		<rect x="6" y="56" width="2" height="2" />
		<rect x="8" y="56" width="2" height="2" />
		<rect x="10" y="56" width="2" height="2" />
		<rect x="12" y="56" width="2" height="2" />
		<rect x="16" y="56" width="2" height="2" />
		<rect x="26" y="56" width="2" height="2" />
		<rect x="30" y="56" width="2" height="2" />
		<rect x="32" y="56" width="2" height="2" />
		<rect x="34" y="56" width="2" height="2" />
		<rect x="38" y="56" width="2" height="2" />
		<rect x="40" y="56" width="2" height="2" />
		<rect x="48" y="56" width="2" height="2" />
		<rect x="50" y="56" width="2" height="2" />
	</g>
</svg>
